<?xml version="1.0" encoding="utf-8"?>
<!-- Generator: Adobe Illustrator 26.2.1, SVG Export Plug-In . SVG Version: 6.00 Build 0)  -->
<svg version="1.1" id="Layer_1" xmlns="http://www.w3.org/2000/svg" xmlns:xlink="http://www.w3.org/1999/xlink" x="0px" y="0px"
	 viewBox="0 0 1984.2 935.4" style="enable-background:new 0 0 1984.2 935.4;" xml:space="preserve">
<style type="text/css">
	.st0{fill:none;stroke:#00A551;stroke-width:2;stroke-miterlimit:10;stroke-dasharray:10,10,10;}
	.st1{fill:none;stroke:#00A551;stroke-width:2;stroke-miterlimit:10;}
	.st2{fill:none;stroke:#00A551;stroke-width:2;stroke-miterlimit:10;stroke-dasharray:9.9463,9.9463,9.9463,9.9463;}
	.st3{fill:none;stroke:#00A551;stroke-width:2;stroke-miterlimit:10;stroke-dasharray:9.9463,9.9463,9.9463,9.9463,9.9463,9.9463;}
	.st4{fill:none;stroke:#EC1C24;stroke-width:2;stroke-miterlimit:10;}
</style>
<g>
	<polyline class="st0" points="731.6,719.4 870.9,580.1 1012.8,722 	"/>
	<line class="st0" x1="48.6" y1="722.4" x2="1976.1" y2="722.4"/>
	<g>
		<g>
			<line class="st1" x1="6.7" y1="582.1" x2="11.7" y2="582.1"/>
			<line class="st2" x1="21.6" y1="582.1" x2="56.4" y2="582.1"/>
			<line class="st3" x1="61.4" y1="582.1" x2="1966.1" y2="582.1"/>
			<line class="st1" x1="1971.1" y1="582.1" x2="1976.1" y2="582.1"/>
		</g>
	</g>
	<g>
		<g>
			<line class="st1" x1="6.7" y1="62.3" x2="11.7" y2="62.3"/>
			<line class="st2" x1="21.6" y1="62.3" x2="56.4" y2="62.3"/>
			<line class="st3" x1="61.4" y1="62.3" x2="1966.1" y2="62.3"/>
			<line class="st1" x1="1971.1" y1="62.3" x2="1976.1" y2="62.3"/>
		</g>
	</g>
	<polyline class="st0" points="1691.9,722.6 1834.4,580.1 1977.1,722.9 	"/>
	<line class="st0" x1="48.6" y1="16.6" x2="48.6" y2="723.4"/>
	<line class="st0" x1="728.9" y1="716.7" x2="728.9" y2="16.6"/>
	<line class="st0" x1="870.9" y1="16.6" x2="870.9" y2="723.4"/>
	<line class="st0" x1="1012.3" y1="722.4" x2="1012.3" y2="16.6"/>
	<line class="st0" x1="1692.7" y1="723.4" x2="1692.7" y2="723.4"/>
	<line class="st0" x1="1692.7" y1="723.4" x2="1692.7" y2="16.6"/>
	<polyline class="st4" points="1495,921.3 1672.8,921.3 1678.3,750.2 1691.9,722.6 	"/>
	<polyline class="st4" points="1977.6,722.4 1967.6,921.3 1714.2,921.3 1707.2,746.3 1696.3,723.4 	"/>
	<polyline class="st4" points="1977.6,722.4 1977.6,14.2 8.1,14.2 8.1,700.4 52.1,722.4 62,921.3 705.7,921.3 715.6,748.2 
		725.5,723.4 736.5,748.2 743.5,921.3 997.9,921.3 1003.9,745.3 1012.3,722.4 1025.8,748.2 1031.2,921.3 1495,921.3 	"/>
	<line class="st0" x1="1834.4" y1="16.6" x2="1834.4" y2="723.4"/>
</g>
</svg>
